<svg xmlns="http://www.w3.org/2000/svg" xmlns:xlink="http://www.w3.org/1999/xlink" width="7" height="109" version="1.1" viewBox="0 0 7 109"><title>16CB4618-0BD3-4568-BB20-FC56EBC46046</title><desc>Created with sketchtool.</desc><g id="Screens-revised" fill="none" fill-rule="evenodd" stroke="none" stroke-width="1" opacity=".2"><g id="Left-Panel-mention-states" stroke="#000" transform="translate(-224.000000, -134.000000)"><g id="notification-shortcuts" transform="translate(206.000000, 119.000000)"><g id="slider" transform="translate(16.000000, 16.000000)"><g id="notif_slider" transform="translate(3.000000, 0.000000)"><path id="Line" stroke-linecap="square" d="M2.5,3.49505001 L2.5,104.507355"/><circle id="Oval-187" cx="2.5" cy="36.5" r="2.5" fill="#F7F7F7"/><path id="Oval-187-Copy" fill="#F7F7F7" d="M2.5,73 C3.88071187,73 5,71.8807119 5,70.5 C5,69.1192881 3.88071187,68 2.5,68 C1.11928813,68 0,69.1192881 0,70.5 C0,71.8807119 1.11928813,73 2.5,73 Z"/><path id="Oval-187-Copy-3" fill="#F7F7F7" d="M2.5,5 C3.88071187,5 5,3.88071187 5,2.5 C5,1.11928813 3.88071187,0 2.5,0 C1.11928813,0 0,1.11928813 0,2.5 C0,3.88071187 1.11928813,5 2.5,5 Z"/><circle id="Oval-187-Copy-2" cx="2.5" cy="104.5" r="2.5" fill="#F7F7F7"/></g></g></g></g></g></svg>
