<svg xmlns="http://www.w3.org/2000/svg" width="31" height="31" fill="none" viewBox="0 0 31 31"><rect width="31" height="31" fill="#000" fill-opacity="0"/><circle cx="15.5" cy="15.5" r="15.5" fill="#A2A2A2"/><path fill="#fff" stroke="#fff" stroke-width=".5" d="M22.8553 15.5C22.8553 19.5622 19.5622 22.8553 15.5 22.8553C11.4378 22.8553 8.14474 19.5622 8.14474 15.5C8.14474 11.4378 11.4378 8.14474 15.5 8.14474C19.5622 8.14474 22.8553 11.4378 22.8553 15.5ZM15.5 24.25C20.3325 24.25 24.25 20.3325 24.25 15.5C24.25 10.6675 20.3325 6.75 15.5 6.75C10.6675 6.75 6.75 10.6675 6.75 15.5C6.75 20.3325 10.6675 24.25 15.5 24.25Z"/><rect width="1.5" height="29.405" x="16.267" y="30.503" fill="#A2A2A2" transform="rotate(179.987 16.2666 30.5032)"/><rect width="1.5" height="29.659" x="8.894" y="28.843" fill="#A2A2A2" transform="rotate(-149.607 8.89404 28.8434)"/><rect width="1.5" height="30.075" x="2.88" y="24.495" fill="#A2A2A2" transform="rotate(-121.597 2.87988 24.495)"/><rect width="1.5" height="29.643" x="2.163" y="23.341" fill="#A2A2A2" transform="rotate(-116.581 2.16284 23.3413)"/><rect width="1.5" height="29.502" x="1.552" y="22.134" fill="#A2A2A2" transform="rotate(-111.584 1.55176 22.1343)"/><path fill="#fff" stroke="#fff" d="M9.5 17L7.5 20L5.5 17L9.5 17Z"/><path fill="#fff" stroke="#fff" d="M21.5 15L23.5 12L25.5 15H21.5Z"/></svg>