<svg xmlns="http://www.w3.org/2000/svg" xmlns:xlink="http://www.w3.org/1999/xlink" id="Layer_1" x="0" y="0" version="1.1" viewBox="0 0 113 144" xml:space="preserve" style="enable-background:new 0 0 113 144"><style type="text/css">.st0{fill:#7bc9a4}.st1{fill:#b47bb5}</style><path d="M61.6,0H20.8c-0.1,0-0.2,0-0.3,0C9.2,0,0,9.2,0,20.6v102.9C0,134.8,9.2,144,20.6,144c11.3,0,20.6-9.2,20.6-20.6	v-20.6h20.5c28.3,0,51.4-23.1,51.4-51.4S90,0,61.6,0" class="st0"/><path d="M37.4,8.8c6.5,9.3,4.3,22.1-5,28.7c-9.3,6.5-22.1,4.3-28.6-5.1c-6.5-9.3-4.3-22.1,5-28.7	C18.1-2.8,30.9-0.5,37.4,8.8" class="st1"/><path d="M109.3,111.6c6.5,9.3,4.3,22.1-5,28.7c-9.3,6.5-22.1,4.3-28.6-5.1l-30.8-44c-6.5-9.3-4.3-22.1,5-28.7	c9.3-6.5,22.1-4.3,28.6,5.1L109.3,111.6z" class="st1"/></svg>