<svg xmlns="http://www.w3.org/2000/svg" width="48" height="48" fill="none" viewBox="0 0 48 48"><path fill-rule="evenodd" stroke="#61708B" stroke-linecap="round" stroke-linejoin="round" stroke-width="2" d="M6 8C6 6.89543 6.89543 6 8 6H40C41.1046 6 42 6.89543 42 8V40C42 41.1046 41.1046 42 40 42H8C6.89543 42 6 41.1046 6 40V8Z" clip-rule="evenodd"/><path fill-rule="evenodd" stroke="#61708B" stroke-linecap="round" stroke-linejoin="round" stroke-width="2" d="M17 20C18.6569 20 20 18.6569 20 17C20 15.3431 18.6569 14 17 14C15.3431 14 14 15.3431 14 17C14 18.6569 15.3431 20 17 20Z" clip-rule="evenodd"/><path stroke="#61708B" stroke-linecap="round" stroke-linejoin="round" stroke-width="2" d="M42 30L32 20L10 42"/></svg>
